<?xml version="1.0" encoding="UTF-8"?>
<svg id="Capa_1" data-name="Capa 1" xmlns="http://www.w3.org/2000/svg" viewBox="0 0 735.34 491.02">
  <polygon points="252.84 103.1 176.01 205.91 22.2 0 175.86 0 251.8 101.7 252.84 103.1"/>
  <polygon points="735.34 491.02 581.69 491.02 559.48 461.26 483.47 359.49 482.43 358.16 487.69 351.13 559.26 255.35 735.34 491.02"/>
  <polygon points="290.73 359.49 290.95 359.49 290.88 359.64 290.73 359.49"/>
  <polygon points="713.14 0 540.83 230.63 464 333.44 444.61 359.49 444.54 359.56 444.39 359.49 290.95 359.49 367.71 256.76 387.25 230.63 464 127.82 483.54 101.7 559.48 0 713.14 0"/>
  <polygon points="713.14 0 540.83 230.63 464 333.44 444.61 359.49 290.95 359.49 367.71 256.76 387.25 230.63 464 127.82 483.54 101.7 559.48 0 713.14 0"/>
  <polygon points="444.61 359.49 444.54 359.56 444.39 359.49 444.61 359.49"/>
  <polygon points="251.95 359.49 175.86 461.26 153.66 491.02 0 491.02 194.51 230.63 271.34 127.82 290.88 101.7 444.46 101.7 367.71 204.5 348.17 230.63 271.34 333.51 251.95 359.49"/>
  <polygon points="444.46 101.7 367.71 204.5 348.17 230.63 271.34 333.51 251.95 359.49 175.86 461.26 153.66 491.02 0 491.02 194.51 230.63 271.34 127.82 290.88 101.7 444.46 101.7"/>
  <polygon points="290.95 359.49 290.88 359.64 290.73 359.49 290.95 359.49"/>
  <polygon points="444.61 359.49 444.54 359.56 444.39 359.49 444.61 359.49"/>
</svg>