<?xml version="1.0" encoding="UTF-8"?>
<svg id="Capa_1" data-name="Capa 1" xmlns="http://www.w3.org/2000/svg" viewBox="0 0 956.89 113.02">
  <defs>
    <style>
      .cls-1 {
        fill: #fff;
      }
    </style>
  </defs>
  <path class="cls-1" d="M59.71,112.02c-18.79,0-33.43-4.66-43.94-13.98C5.26,88.72,0,75.02,0,56.94S5.26,24.95,15.77,15.62C26.28,6.3,40.93,1.64,59.71,1.64h70.43V25.82s-70.43,0-70.43,0c-9.11,0-16.08,2.52-20.92,7.57-4.84,5.05-7.25,12.9-7.25,23.55s2.42,18.29,7.25,23.34c4.84,5.05,11.81,7.57,20.92,7.57h72.54v24.18H59.71Z"/>
  <path class="cls-1" d="M194.54,112.02c-18.79,0-33.43-4.66-43.94-13.98-10.51-9.32-15.77-23.02-15.77-41.11s5.26-31.99,15.77-41.31c10.51-9.32,25.16-13.98,43.94-13.98h38.9c18.78,0,33.43,4.66,43.94,13.98,10.51,9.32,15.77,23.09,15.77,41.31s-5.26,31.78-15.77,41.11c-10.51,9.32-25.16,13.98-43.94,13.98h-38.9Zm0-24.18h38.9c9.11,0,16.08-2.52,20.92-7.57,4.84-5.05,7.25-12.82,7.25-23.34s-2.42-18.5-7.25-23.55c-4.84-5.05-11.81-7.57-20.92-7.57h-38.9c-9.11,0-16.08,2.52-20.92,7.57-4.84,5.05-7.25,12.9-7.25,23.55s2.42,18.29,7.25,23.34c4.84,5.05,11.81,7.57,20.92,7.57Z"/>
  <path class="cls-1" d="M304.88,112.02v-24.18s103.02,0,103.02,0c5.89,0,8.83-3.29,8.83-9.88s-2.94-9.67-8.83-9.67h-66.65c-12.48,0-21.94-2.84-28.38-8.52-6.45-5.68-9.67-13.84-9.67-24.49s3.26-19.1,9.78-24.92c6.52-5.81,15.94-8.73,28.28-8.73h95.88V25.82h-94.4c-6.03,0-9.04,2.94-9.04,8.83,0,2.94,.84,5.26,2.52,6.94,1.68,1.68,3.85,2.52,6.52,2.52h70.64c10.93,0,19.31,2.84,25.12,8.52,5.81,5.68,8.73,13.91,8.73,24.7s-2.94,19.45-8.83,25.55c-5.89,6.1-14.23,9.15-25.02,9.15h-108.49Z"/>
  <path class="cls-1" d="M457.54,110.97V2.69h140.24c12.33,0,21.37,3.05,27.12,9.15,5.75,6.1,8.62,14.12,8.62,24.07V110.97h-30.49V39.7c0-8.55-4.35-12.83-13.04-12.83h-29.22V110.97h-30.49V26.87h-42.26V110.97h-30.49Z"/>
  <path class="cls-1" d="M703.39,112.02c-18.79,0-33.43-4.66-43.94-13.98-10.51-9.32-15.77-23.02-15.77-41.11s5.26-31.99,15.77-41.31c10.51-9.32,25.16-13.98,43.94-13.98h38.9c18.78,0,33.43,4.66,43.94,13.98,10.51,9.32,15.77,23.09,15.77,41.31s-5.26,31.78-15.77,41.11c-10.51,9.32-25.16,13.98-43.94,13.98h-38.9Zm0-24.18h38.9c9.11,0,16.08-2.52,20.92-7.57,4.84-5.05,7.25-12.82,7.25-23.34s-2.42-18.5-7.25-23.55c-4.84-5.05-11.81-7.57-20.92-7.57h-38.9c-9.11,0-16.08,2.52-20.92,7.57-4.84,5.05-7.25,12.9-7.25,23.55s2.42,18.29,7.25,23.34c4.84,5.05,11.81,7.57,20.92,7.57Z"/>
  <polygon class="cls-1" points="845.83 23.73 828.15 47.39 792.75 0 828.11 0 845.59 23.41 845.83 23.73"/>
  <polygon class="cls-1" points="956.89 113.02 921.52 113.02 916.41 106.17 898.91 82.74 898.68 82.44 899.88 80.82 916.36 58.77 956.89 113.02"/>
  <polygon class="cls-1" points="854.55 82.74 854.6 82.74 854.59 82.78 854.55 82.74"/>
  <polygon class="cls-1" points="951.78 0 912.12 53.08 894.43 76.75 889.97 82.74 889.95 82.76 889.92 82.74 854.6 82.74 872.27 59.1 876.77 53.08 894.43 29.42 898.93 23.41 916.41 0 951.78 0"/>
  <polygon class="cls-1" points="951.78 0 912.12 53.08 894.43 76.75 889.97 82.74 854.6 82.74 872.27 59.1 876.77 53.08 894.43 29.42 898.93 23.41 916.41 0 951.78 0"/>
  <polygon class="cls-1" points="889.97 82.74 889.95 82.76 889.92 82.74 889.97 82.74"/>
  <polygon class="cls-1" points="845.63 82.74 828.11 106.17 823 113.02 787.64 113.02 832.41 53.08 850.09 29.42 854.59 23.41 889.94 23.41 872.27 47.07 867.77 53.08 850.09 76.76 845.63 82.74"/>
  <polygon class="cls-1" points="889.94 23.41 872.27 47.07 867.77 53.08 850.09 76.76 845.63 82.74 828.11 106.17 823 113.02 787.64 113.02 832.41 53.08 850.09 29.42 854.59 23.41 889.94 23.41"/>
  <polygon class="cls-1" points="854.6 82.74 854.59 82.78 854.55 82.74 854.6 82.74"/>
  <polygon class="cls-1" points="889.97 82.74 889.95 82.76 889.92 82.74 889.97 82.74"/>
</svg>