<?xml version="1.0" encoding="UTF-8"?>
<svg id="Capa_1" data-name="Capa 1" xmlns="http://www.w3.org/2000/svg" viewBox="0 0 908.01 426.9">
  <defs>
    <style>
      .cls-1 {
        fill: #fff;
      }

      .cls-2 {
        fill: #47d7ac;
      }
    </style>
  </defs>
  <path class="cls-2" d="M57.52,426.9c-18.1,0-32.2-4.49-42.33-13.47-10.13-8.98-15.19-22.18-15.19-39.6s5.06-30.82,15.19-39.8c10.13-8.98,24.23-13.47,42.33-13.47H125.37v23.29H57.52c-8.78,0-15.49,2.43-20.15,7.29-4.66,4.86-6.99,12.42-6.99,22.68s2.33,17.62,6.99,22.48c4.66,4.86,11.37,7.29,20.15,7.29H127.39v23.29H57.52Z"/>
  <path class="cls-2" d="M187.4,426.9c-18.1,0-32.2-4.49-42.33-13.47-10.13-8.98-15.19-22.18-15.19-39.6s5.06-30.82,15.19-39.8c10.13-8.98,24.23-13.47,42.33-13.47h37.47c18.09,0,32.2,4.49,42.33,13.47,10.13,8.98,15.19,22.25,15.19,39.8s-5.06,30.62-15.19,39.6c-10.13,8.98-24.24,13.47-42.33,13.47h-37.47Zm0-23.29h37.47c8.78,0,15.49-2.43,20.15-7.29,4.66-4.86,6.99-12.35,6.99-22.48s-2.33-17.82-6.99-22.68c-4.66-4.86-11.38-7.29-20.15-7.29h-37.47c-8.78,0-15.49,2.43-20.15,7.29-4.66,4.86-6.99,12.42-6.99,22.68s2.33,17.62,6.99,22.48c4.66,4.86,11.37,7.29,20.15,7.29Z"/>
  <path class="cls-2" d="M293.69,426.9v-23.29h99.24c5.67,0,8.51-3.17,8.51-9.52s-2.84-9.32-8.51-9.32h-64.2c-12.02,0-21.13-2.73-27.34-8.2-6.21-5.47-9.32-13.33-9.32-23.59s3.14-18.4,9.42-24c6.28-5.6,15.36-8.4,27.24-8.4h92.35v23.29h-90.94c-5.81,0-8.71,2.84-8.71,8.51,0,2.84,.81,5.06,2.43,6.68,1.62,1.62,3.71,2.43,6.28,2.43h68.05c10.53,0,18.6,2.73,24.2,8.2,5.6,5.47,8.41,13.4,8.41,23.8s-2.84,18.73-8.51,24.61c-5.67,5.87-13.71,8.81-24.1,8.81h-104.51Z"/>
  <path class="cls-1" d="M440.74,425.88v-104.3h135.09c11.88,0,20.59,2.94,26.13,8.81,5.53,5.87,8.3,13.6,8.3,23.19v72.3h-29.37v-68.66c0-8.23-4.19-12.36-12.56-12.36h-28.15v81.01h-29.37v-81.01h-40.71v81.01h-29.37Z"/>
  <path class="cls-1" d="M677.56,426.9c-18.1,0-32.2-4.49-42.33-13.47-10.13-8.98-15.19-22.18-15.19-39.6s5.06-30.82,15.19-39.8c10.13-8.98,24.23-13.47,42.33-13.47h37.47c18.09,0,32.2,4.49,42.33,13.47,10.13,8.98,15.19,22.25,15.19,39.8s-5.06,30.62-15.19,39.6c-10.13,8.98-24.24,13.47-42.33,13.47h-37.47Zm0-23.29h37.47c8.78,0,15.49-2.43,20.15-7.29,4.66-4.86,6.99-12.35,6.99-22.48s-2.33-17.82-6.99-22.68c-4.66-4.86-11.38-7.29-20.15-7.29h-37.47c-8.78,0-15.49,2.43-20.15,7.29-4.66,4.86-6.99,12.42-6.99,22.68s2.33,17.62,6.99,22.48c4.66,4.86,11.37,7.29,20.15,7.29Z"/>
  <path class="cls-1" d="M764.01,425.88l39.29-52.05-39.29-52.05h34.43l30.18,40.3h14.78l30.38-40.3h34.23l-39.09,52.05,39.09,52.05h-34.23l-30.58-40.51h-14.58l-30.18,40.51h-34.43Z"/>
  <g>
    <polygon class="cls-2" points="395.12 52.87 355.72 105.6 276.84 0 355.64 0 394.59 52.15 395.12 52.87"/>
    <polygon class="cls-1" points="642.56 251.81 563.76 251.81 552.37 236.55 513.39 184.36 512.86 183.67 515.55 180.07 552.26 130.95 642.56 251.81"/>
    <polygon class="cls-1" points="414.55 184.36 414.66 184.36 414.63 184.43 414.55 184.36"/>
    <polygon class="cls-1" points="631.17 0 542.81 118.27 503.41 171 493.46 184.36 493.43 184.39 493.35 184.36 414.66 184.36 454.03 131.67 464.05 118.27 503.41 65.55 513.43 52.15 552.37 0 631.17 0"/>
    <polygon class="cls-2" points="631.17 0 542.81 118.27 503.41 171 493.46 184.36 414.66 184.36 454.03 131.67 464.05 118.27 503.41 65.55 513.43 52.15 552.37 0 631.17 0"/>
    <polygon class="cls-1" points="493.46 184.36 493.43 184.39 493.35 184.36 493.46 184.36"/>
    <polygon class="cls-1" points="394.66 184.36 355.64 236.55 344.25 251.81 265.46 251.81 365.21 118.27 404.61 65.55 414.63 52.15 493.39 52.15 454.03 104.87 444.01 118.27 404.61 171.03 394.66 184.36"/>
    <polygon class="cls-1" points="493.39 52.15 454.03 104.87 444.01 118.27 404.61 171.03 394.66 184.36 355.64 236.55 344.25 251.81 265.46 251.81 365.21 118.27 404.61 65.55 414.63 52.15 493.39 52.15"/>
    <polygon class="cls-1" points="414.66 184.36 414.63 184.43 414.55 184.36 414.66 184.36"/>
    <polygon class="cls-1" points="493.46 184.36 493.43 184.39 493.35 184.36 493.46 184.36"/>
  </g>
</svg>